<svg xmlns="http://www.w3.org/2000/svg" width="32" height="32" viewBox="0 0 32 32">
  <g id="Raggruppa_282" data-name="Raggruppa 282" transform="translate(-150)">
    <path id="Tracciato_96" data-name="Tracciato 96" d="M171,30a8,8,0,1,1,8-8A8.024,8.024,0,0,1,171,30Zm0-14a6,6,0,1,0,6,6A6.018,6.018,0,0,0,171,16Z" fill="#fff"/>
    <path id="Tracciato_97" data-name="Tracciato 97" d="M172.6,25,170,22.4V18h2v3.6l2,2Z" fill="#fff"/>
    <path id="Tracciato_98" data-name="Tracciato 98" d="M178,6a2.006,2.006,0,0,0-2-2h-4V2h-2V4h-8V2h-2V4h-4a2.006,2.006,0,0,0-2,2V26a2.006,2.006,0,0,0,2,2h4V26h-4V6h4V8h2V6h8V8h2V6h4v6h2Z" fill="#fff"/>
    <rect id="_x3C_Transparent_Rectangle_x3E__2_" width="32" height="32" transform="translate(150)" fill="none"/>
  </g>
</svg>
