<svg xmlns="http://www.w3.org/2000/svg" width="32" height="32" viewBox="0 0 32 32">
  <g id="Raggruppa_894" data-name="Raggruppa 894" transform="translate(-150)">
    <path id="Tracciato_98" data-name="Tracciato 98" d="M178,6a2.006,2.006,0,0,0-2-2h-4V2h-2V4h-8V2h-2V4h-4a2.006,2.006,0,0,0-2,2V26a2.006,2.006,0,0,0,2,2h4V26h-4V6h4V8h2V6h8V8h2V6h4v6h2Z" fill="#fff"/>
    <rect id="_x3C_Transparent_Rectangle_x3E__2_" width="32" height="32" transform="translate(150)" fill="none"/>
    <g id="Raggruppa_895" data-name="Raggruppa 895" transform="translate(67.49 -118.197) rotate(45)">
      <path id="Tracciato_97" data-name="Tracciato 97" d="M170,31.909V18h2.675V31.909Z" transform="translate(1.417)" fill="#fff"/>
      <path id="Tracciato_225" data-name="Tracciato 225" d="M0,13.909V0H2.675V13.909Z" transform="translate(179.709 23.617) rotate(90)" fill="#fff"/>
    </g>
  </g>
</svg>
